#!OML:ASF H:\GeneralSubjects\Female5\Project 1\Capture day 1\Session 1\Female5.ASF
:FULLY-SPECIFIED
:DEGREES
145
root 8.24708 16.0205 2.94817 -182.063 -61.1152 -168.595
lowerback 7.97868 5.31849 10.3583
upperback -10.392 8.7666 3.4965
thorax -15.2151 2.94043 -3.44822
lowerneck -6.92087 -10.5262 -21.6321
upperneck 27.0405 -13.4197 3.20851
head 11.8132 -8.30735 2.7907
rclavicle -1.02374e-013 -7.15625e-014
rhumerus -39.3095 43.9236 -55.4101
rradius 99.9663
rwrist -15.4024
rhand -16.7115 -14.1719
rfingers 7.12502
rthumb 9.51371 -43.9371
lclavicle -1.02374e-013 -7.15625e-014
lhumerus -31.6136 24.0606 8.95695
lradius 149.091
lwrist 49.3211
lhand -11.0115 25.8841
lfingers 7.12502
lthumb 15.0095 55.3201
rfemur 1.42196 15.133 35.2098
rtibia -1.54896
rfoot -41.4129 -26.6659
rtoes 19.3958
lfemur -16.7461 -10.402 -18.4288
ltibia 20.6808
lfoot -24.9408 7.08367
ltoes -57.4983
146
root 8.25108 16.0183 2.97211 -180.626 -59.5359 -169.966
lowerback 8.0875 5.1007 10.3057
upperback -10.5087 8.47419 3.52611
thorax -15.4796 2.78097 -3.3493
lowerneck -9.40378 -9.8359 -19.9714
upperneck 28.2448 -11.8283 2.0382
head 12.3442 -7.57946 2.23981
rclavicle 1.33186e-014 -4.77083e-014
rhumerus -38.2746 44.8598 -56.4217
rradius 98.9598
rwrist -14.8141
rhand -16.8933 -14.16
rfingers 7.12502
rthumb 9.33828 -43.9332
lclavicle 1.33186e-014 -4.77083e-014
lhumerus -25.5367 20.7522 15.4997
lradius 147.673
lwrist 45.4553
lhand -11.0662 25.5498
lfingers 7.12502
lthumb 14.9568 54.9898
rfemur 0.760467 15.3755 34.547
rtibia -0.97591
rfoot -39.978 -26.4193
rtoes 18.3965
lfemur -16.1445 -9.91366 -18.9055
ltibia 19.7621
lfoot -25.5726 7.48234
ltoes -56.8571
147
root 8.25614 16.0194 2.9988 -179.074 -57.9062 -171.443
lowerback 8.04519 4.84997 10.0658
upperback -10.6369 8.07976 3.50489
thorax -15.6847 2.5983 -3.17259
lowerneck -8.60794 -8.99304 -19.1031
upperneck 27.6681 -10.9477 1.93301
head 11.7606 -7.1217 2.28347
rclavicle 5.725e-014 -1.59028e-014
rhumerus -36.9951 45.671 -57.4767
rradius 97.7691
rwrist -14.7088
rhand -16.8238 -14.5326
rfingers 7.12502
rthumb 9.40533 -44.3028
lclavicle 5.725e-014 -1.59028e-014
lhumerus -19.2764 16.3201 21.6873
lradius 145.397
lwrist 41.9777
lhand -11.0192 25.1718
lfingers 7.12502
lthumb 15.002 54.6083
rfemur -0.019745 15.4907 33.7004
rtibia -0.374418
rfoot -38.242 -26.3073
rtoes 16.7949
lfemur -15.6008 -9.49445 -19.5268
ltibia 18.8534
lfoot -26.2578 7.90235
ltoes -56.4523
148
root 8.25946 16.0218 3.02426 -177.712 -56.2264 -172.742
lowerback 7.80149 4.56051 9.69514
upperback -10.6973 7.58025 3.51959
thorax -15.7014 2.40161 -2.84546
lowerneck -9.98165 -8.0589 -17.342
upperneck 28.6377 -9.40717 0.842631
head 12.0521 -6.43067 1.78539
rclavicle -2.5842e-014 -8.5875e-014
rhumerus -35.2943 46.4173 -58.4493
rradius 96.2848
rwrist -14.9112
rhand -17.0703 -14.7737
rfingers 7.12502
rthumb 9.16753 -44.5545
lclavicle -2.5842e-014 -8.5875e-014
lhumerus -12.9859 10.94 26.9444
lradius 142.191
lwrist 38.9452
lhand -11.2966 24.7491
lfingers 7.12502
lthumb 14.7347 54.2054
rfemur -0.657876 15.9373 32.9439
rtibia 0.044414
rfoot -36.8684 -26.1733
rtoes 15.5944
lfemur -15.001 -9.1186 -20.125
ltibia 17.8797
lfoot -26.7633 9.03687
ltoes -56.9954
149
root 8.25884 16.0226 3.04568 -176.776 -54.4888 -173.667
lowerback 7.45542 4.22895 9.32967
upperback -10.702 7.01316 3.61717
thorax -15.5937 2.18747 -2.40678
lowerneck -10.2767 -7.06137 -16.0393
upperneck 29.0147 -8.07389 0.262608
head 12.0094 -5.8124 1.56307
rclavicle -3.18055e-015 4.77083e-014
rhumerus -33.4095 47.1973 -59.4251
rradius 94.6477
rwrist -15.2895
rhand -17.5211 -14.6139
rfingers 7.12502
rthumb 8.73253 -44.4133
lclavicle -3.18055e-015 4.77083e-014
lhumerus -6.9115 4.73075 31.4982
lradius 136.982
lwrist 34.9643
lhand -12.4536 23.5834
lfingers 7.12502
lthumb 13.6199 53.1179
rfemur -1.03944 16.7153 32.4742
rtibia 0.289415
rfoot -35.8067 -26.2192
rtoes 14.4622
lfemur -14.2407 -8.77106 -20.5563
ltibia 16.8387
lfoot -27.4826 9.82754
ltoes -56.873
150
root 8.25706 16.0246 3.0663 -176.011 -52.817 -174.499
lowerback 7.09998 3.80746 8.89399
upperback -10.736 6.3188 3.76909
thorax -15.533 1.92011 -1.84756
lowerneck -10.6834 -5.92529 -14.8086
upperneck 29.8387 -6.5457 -0.340992
head 12.1857 -5.15185 1.34561
rclavicle 3.29983e-014 3.81667e-014
rhumerus -31.5372 48.1608 -60.4729
rradius 92.9633
rwrist -15.7326
rhand -17.8784 -14.5374
rfingers 7.12502
rthumb 8.38765 -44.3508
lclavicle 3.29983e-014 3.81667e-014
lhumerus -1.03137 -1.76565 35.2396
lradius 129.56
lwrist 29.5593
lhand -14.2006 22.2655
lfingers 7.12502
lthumb 11.9356 51.9052
rfemur -1.2609 17.4898 32.0655
rtibia 0.416335
rfoot -34.7496 -26.5991
rtoes 13.0413
lfemur -13.3934 -8.63134 -21.0048
ltibia 15.7787
lfoot -28.6116 9.72954
ltoes -55.4293
151
root 8.25674 16.0283 3.08525 -175.2 -51.2566 -175.48
lowerback 6.67186 3.27571 7.96064
upperback -10.5264 5.41648 4.07194
thorax -15.1787 1.65031 -0.814772
lowerneck -12.6499 -4.7938 -13.3943
upperneck 31.3961 -4.69781 -1.17793
head 12.9968 -4.383 0.987604
rclavicle -8.34896e-015 -4.77083e-015
rhumerus -28.6392 49.2535 -60.655
rradius 91.2286
rwrist -16.3575
rhand -18.4064 -15.0139
rfingers 7.12502
rthumb 7.87811 -44.8472
lclavicle -8.34896e-015 -4.77083e-015
lhumerus 5.3184 -6.99101 38.3034
lradius 119.858
lwrist 24.3437
lhand -14.5115 22.617
lfingers 7.12502
lthumb 11.6359 52.2739
rfemur -1.3196 18.2834 31.5381
rtibia 0.338418
rfoot -33.8462 -27.1287
rtoes 11.6565
lfemur -12.5415 -8.51487 -21.6383
ltibia 14.7995
lfoot -29.6465 9.6452
ltoes -54.3408
152
root 8.25749 16.034 3.10073 -174.428 -49.7928 -176.493
lowerback 6.21143 3.01388 7.33418
upperback -10.7593 4.88443 3.7973
thorax -15.2131 1.44141 -0.658191
lowerneck -12.3471 -3.68316 -11.7806
upperneck 32.7013 -3.57171 -1.63219
head 13.3265 -3.89535 0.692746
rclavicle -2.38542e-014 3.02153e-014
rhumerus -28.2413 49.5017 -62.8033
rradius 89.6045
rwrist -16.7933
rhand -18.7556 -15.6039
rfingers 7.12502
rthumb 7.54101 -45.4495
lclavicle -2.38542e-014 3.02153e-014
lhumerus 11.722 -12.9668 40.383
lradius 106.897
lwrist 16.2682
lhand -16.0742 21.1135
lfingers 7.12502
lthumb 10.1286 50.8498
rfemur -1.19404 19.4155 31.0149
rtibia 0.0999788
rfoot -33.6717 -27.5859
rtoes 10.8853
lfemur -11.6442 -8.32856 -22.369
ltibia 13.8122
lfoot -30.4181 9.82424
ltoes -53.9069
153
root 8.26099 16.044 3.11696 -173.904 -48.5136 -177.253
lowerback 5.7978 2.63762 6.67348
upperback -10.958 4.20827 3.6288
thorax -15.2509 1.17657 -0.342327
lowerneck -11.3894 -2.66055 -10.6255
upperneck 33.381 -2.67102 -1.64945
head 13.3082 -3.46431 0.627711
rclavicle -5.84427e-014 -4.6118e-014
rhumerus -27.5799 49.7934 -64.7727
rradius 87.8926
rwrist -17.3208
rhand -18.9145 -15.4725
rfingers 7.12502
rthumb 7.38764 -45.3235
lclavicle -5.84427e-014 -4.6118e-014
lhumerus 18.5992 -17.6209 41.8809
lradius 90.8571
lwrist 6.05288
lhand -18.8545 19.9019
lfingers 7.12502
lthumb 7.44555 49.7509
rfemur -0.927261 20.9306 30.7113
rtibia -0.194936
rfoot -34.3194 -27.9471
rtoes 11.6182
lfemur -10.8034 -8.2726 -22.9652
ltibia 12.8618
lfoot -31.0365 10.1089
ltoes -53.4701
